<svg xmlns="http://www.w3.org/2000/svg" viewBox="0 0 640 400" role="img" aria-label="Habitat Laundry Sheets">
  <defs>
    <linearGradient id="bg" x1="0" y1="0" x2="1" y2="1">
      <stop offset="0" stop-color="#0B1213"/>
      <stop offset="1" stop-color="#030506"/>
    </linearGradient>
    <pattern id="scan" width="8" height="8" patternUnits="userSpaceOnUse">
      <path d="M0 7.5H8" stroke="#C0DDD9" stroke-opacity="0.035"/>
    </pattern>
    <filter id="glow" x="-40%" y="-40%" width="180%" height="180%">
      <feGaussianBlur stdDeviation="4" result="blur"/>
      <feMerge><feMergeNode in="blur"/><feMergeNode in="SourceGraphic"/></feMerge>
    </filter>
  </defs>
  <rect width="640" height="400" fill="url(#bg)"/>
  <rect width="640" height="400" fill="url(#scan)"/>
  <g fill="none" stroke="#5F7473" stroke-opacity="0.24">
    <path d="M24 76V24H76M564 24H616V76M24 324V376H76M564 376H616V324"/>
    <path d="M320 18V50M320 350V382M18 200H50M590 200H622"/>
    <rect x="74" y="52" width="492" height="296" rx="2"/>
  </g>
  <g stroke="#7F94B8" stroke-opacity="0.2">
    <path d="M92 92H188M452 92H548M92 308H188M452 308H548"/>
  </g>
  
  <g transform="translate(142 82)" fill="none" stroke="#7F94B8" stroke-width="4" stroke-linejoin="round" filter="url(#glow)">
    <rect x="24" y="26" width="332" height="220" rx="14" fill="#101820" fill-opacity="0.72"/>
    <g><rect x="52" y="58" width="52" height="52" rx="8" fill="#7F94B8" fill-opacity="0.08"/><rect x="124" y="58" width="52" height="52" rx="8" fill="#7F94B8" fill-opacity="0.08"/><rect x="196" y="58" width="52" height="52" rx="8" fill="#7F94B8" fill-opacity="0.08"/><rect x="268" y="58" width="52" height="52" rx="8" fill="#7F94B8" fill-opacity="0.08"/><rect x="52" y="130" width="52" height="52" rx="8" fill="#7F94B8" fill-opacity="0.08"/><rect x="124" y="130" width="52" height="52" rx="8" fill="#7F94B8" fill-opacity="0.08"/><rect x="196" y="130" width="52" height="52" rx="8" fill="#7F94B8" fill-opacity="0.08"/><rect x="268" y="130" width="52" height="52" rx="8" fill="#7F94B8" fill-opacity="0.08"/><rect x="52" y="202" width="52" height="52" rx="8" fill="#7F94B8" fill-opacity="0.08"/><rect x="124" y="202" width="52" height="52" rx="8" fill="#7F94B8" fill-opacity="0.08"/><rect x="196" y="202" width="52" height="52" rx="8" fill="#7F94B8" fill-opacity="0.08"/><rect x="268" y="202" width="52" height="52" rx="8" fill="#7F94B8" fill-opacity="0.08"/></g>
    <path d="M24 94h332" opacity="0.32"/>
  </g>
  <g fill="#7F94B8" opacity="0.55">
    <circle cx="96" cy="92" r="3"/><circle cx="544" cy="92" r="3"/>
    <circle cx="96" cy="308" r="3"/><circle cx="544" cy="308" r="3"/>
  </g>
</svg>
