<svg xmlns="http://www.w3.org/2000/svg" viewBox="0 0 640 400" role="img" aria-label="Cyberware product visual">
  <defs>
    <linearGradient id="bg" x1="0" y1="0" x2="1" y2="1">
      <stop offset="0" stop-color="#0B1213"/>
      <stop offset="1" stop-color="#030506"/>
    </linearGradient>
    <pattern id="scan" width="8" height="8" patternUnits="userSpaceOnUse">
      <path d="M0 7.5H8" stroke="#C0DDD9" stroke-opacity="0.035"/>
    </pattern>
    <filter id="glow" x="-40%" y="-40%" width="180%" height="180%">
      <feGaussianBlur stdDeviation="4" result="blur"/>
      <feMerge><feMergeNode in="blur"/><feMergeNode in="SourceGraphic"/></feMerge>
    </filter>
  </defs>
  <rect width="640" height="400" fill="url(#bg)"/>
  <rect width="640" height="400" fill="url(#scan)"/>
  <g fill="none" stroke="#5F7473" stroke-opacity="0.24">
    <path d="M24 76V24H76M564 24H616V76M24 324V376H76M564 376H616V324"/>
    <path d="M320 18V50M320 350V382M18 200H50M590 200H622"/>
    <rect x="74" y="52" width="492" height="296" rx="2"/>
  </g>
  <g stroke="#7F94B8" stroke-opacity="0.2">
    <path d="M92 92H188M452 92H548M92 308H188M452 308H548"/>
  </g>
  
  <g transform="translate(192 74)" fill="none" stroke="#7F94B8" stroke-width="5" stroke-linecap="round" filter="url(#glow)">
    <rect x="52" y="56" width="152" height="188" rx="34" fill="#102021" fill-opacity="0.72"/>
    <circle cx="128" cy="150" r="42"/><circle cx="128" cy="150" r="12" fill="#7F94B8" fill-opacity="0.45"/>
    <path d="M128 56V18M128 282v-38M52 150H14M242 150h-38M75 97L48 70M208 230l-27-27M181 97l27-27M48 230l27-27"/>
  </g>
  <g fill="#7F94B8" opacity="0.55">
    <circle cx="96" cy="92" r="3"/><circle cx="544" cy="92" r="3"/>
    <circle cx="96" cy="308" r="3"/><circle cx="544" cy="308" r="3"/>
  </g>
</svg>
